<svg width="17" height="17" viewBox="0 0 17 17" fill="none" xmlns="http://www.w3.org/2000/svg">
<path d="M10.7639 11.3332C12.1103 10.6618 13.0002 9.13611 13.0002 7.45233C13.0002 4.95857 10.9402 2.92942 8.38974 2.92942C5.83933 2.92942 3.77927 4.95857 3.77927 7.45233C3.77927 8.97538 4.50672 10.3786 5.66019 11.1298C5.7764 11.2054 5.89635 11.2741 6.01971 11.3356C7.0993 11.8735 7.86345 12.4085 8.39045 12.9661C8.91802 12.408 9.68309 11.8723 10.7639 11.3332ZM8.38974 14.9167C7.77505 14.9167 8.50251 13.9463 5.47142 12.436C5.30487 12.3531 5.14402 12.2608 4.98925 12.16C3.48083 11.1777 2.5498 9.38395 2.5498 7.45233C2.5498 4.27537 5.16444 1.69995 8.38974 1.69995C11.6151 1.69995 14.2297 4.27537 14.2297 7.45233C14.2297 9.58037 13.096 11.5442 11.3125 12.4335C8.27882 13.9463 9.00451 14.9167 8.38974 14.9167ZM8.38974 10.1832C9.85847 10.1832 11.0331 8.99061 11.0331 7.53988C11.0331 6.08922 9.85847 4.89656 8.38974 4.89656C6.92101 4.89656 5.74641 6.08922 5.74641 7.53988C5.74641 8.99061 6.92101 10.1832 8.38974 10.1832ZM8.38974 8.95378C7.60753 8.95378 6.97587 8.31911 6.97587 7.53988C6.97587 6.76069 7.60753 6.12602 8.38974 6.12602C9.17196 6.12602 9.80365 6.76069 9.80365 7.53988C9.80365 8.31911 9.17196 8.95378 8.38974 8.95378Z" fill="white"/>
</svg>
