<svg width="46" height="46" viewBox="0 0 46 46" fill="none" xmlns="http://www.w3.org/2000/svg">
<path fill-rule="evenodd" clip-rule="evenodd" d="M13.3398 7.91585C13.1569 7.73361 13.0264 7.50546 12.9621 7.25537C12.8978 7.00528 12.9021 6.74249 12.9745 6.49462C13.0468 6.24675 13.1846 6.02294 13.3734 5.84672C13.5621 5.6705 13.7948 5.54838 14.0471 5.49318L23.1838 3.49027C23.4193 3.43873 23.664 3.44724 23.8953 3.51501C24.1266 3.58277 24.3372 3.70762 24.5076 3.87807C24.6781 4.04851 24.8029 4.25908 24.8707 4.4904C24.9384 4.72173 24.9469 4.96638 24.8954 5.20185L22.8906 14.3386C22.8352 14.5902 22.7132 14.8224 22.5374 15.0107C22.3616 15.1991 22.1383 15.3367 21.8911 15.4092C21.6438 15.4817 21.3816 15.4864 21.1319 15.4228C20.8822 15.3592 20.6542 15.2297 20.4717 15.0478L13.3379 7.91393L13.3398 7.91585ZM26.2524 43.3071C27.8282 43.3071 29.3395 42.6811 30.4538 41.5668C31.5681 40.4525 32.1941 38.9413 32.1941 37.3654C32.1941 35.7896 31.5681 34.2783 30.4538 33.164C29.3395 32.0498 27.8282 31.4238 26.2524 31.4238C24.6766 31.4238 23.1653 32.0498 22.051 33.164C20.9367 34.2783 20.3107 35.7896 20.3107 37.3654C20.3107 38.9413 20.9367 40.4525 22.051 41.5668C23.1653 42.6811 24.6766 43.3071 26.2524 43.3071ZM14.1966 14.1891C13.8372 13.8298 13.3497 13.6279 12.8415 13.6279C12.3333 13.6279 11.8458 13.8298 11.4864 14.1891L7.07233 18.6013C6.31656 19.357 5.71705 20.2541 5.30802 21.2416C4.899 22.229 4.68848 23.2873 4.68848 24.3561C4.68848 25.4248 4.899 26.4831 5.30802 27.4706C5.71705 28.458 6.31656 29.3551 7.07233 30.1108L7.08 30.1166C8.60911 31.6418 10.681 32.4979 12.8408 32.4968C15.0005 32.4957 17.0716 31.6376 18.5992 30.1108L30.1087 18.6013C31.7954 16.9146 34.5267 16.9146 36.2133 18.5974C37.8962 20.2764 37.8981 23.0019 36.2191 24.6848L36.2152 24.6867L32.8227 28.0792C32.4631 28.4386 32.261 28.9261 32.2608 29.4345C32.2606 29.943 32.4624 30.4307 32.8218 30.7903C33.1812 31.15 33.6687 31.3521 34.1772 31.3523C34.6856 31.3525 35.1733 31.1507 35.5329 30.7913L38.9254 27.3988L38.9331 27.3911C40.4571 25.8632 41.3118 23.7925 41.3093 21.6345C41.3067 19.4765 40.4472 17.4078 38.9197 15.8834C37.3905 14.3582 35.3186 13.5021 33.1589 13.5032C30.9991 13.5043 28.9281 14.3624 27.4005 15.8892L15.889 27.3988C14.2042 29.0854 11.473 29.0854 9.78441 27.3988C8.97788 26.5916 8.52482 25.4971 8.52482 24.3561C8.52482 23.215 8.97788 22.1206 9.78441 21.3133L14.1966 16.8993C14.5559 16.5398 14.7578 16.0524 14.7578 15.5442C14.7578 15.0359 14.5559 14.5485 14.1966 14.1891Z" fill="black"/>
</svg>
