<svg width="42" height="42" viewBox="0 0 42 42" fill="none" xmlns="http://www.w3.org/2000/svg">
<path d="M28.9733 22.5858L28.1762 23.3782C28.1762 23.3782 26.2817 25.2621 21.1104 20.1201C15.9392 14.9783 17.8337 13.0945 17.8337 13.0945L18.3356 12.5954C19.5722 11.366 19.6887 9.39209 18.6098 7.95108L16.4032 5.00338C15.068 3.21985 12.4879 2.98425 10.9575 4.50595L8.21073 7.23715C7.4519 7.99168 6.94338 8.96978 7.00505 10.0548C7.16282 12.8307 8.41874 18.8032 15.4269 25.7715C22.8587 33.1611 29.8319 33.4547 32.6835 33.1889C33.5855 33.1049 34.3698 32.6455 35.0019 32.0169L37.488 29.5452C39.166 27.8766 38.6928 25.0161 36.5458 23.849L33.2024 22.0314C31.7926 21.2651 30.0751 21.4902 28.9733 22.5858Z" fill="white"/>
</svg>
