<svg width="38" height="38" viewBox="0 0 38 38" fill="none" xmlns="http://www.w3.org/2000/svg">
<path d="M32.7903 5.78624C32.7903 5.78624 35.8661 4.58687 35.6098 7.49964C35.5244 8.69903 34.7554 12.8968 34.1573 17.4374L32.1068 30.8875C32.1068 30.8875 31.9359 32.8579 30.3979 33.2006C28.86 33.5433 26.5531 32.0013 26.1259 31.6586C25.7841 31.4016 19.7179 27.5464 17.5818 25.6617C16.9837 25.1476 16.3002 24.1196 17.6672 22.9202L26.6386 14.3533C27.6638 13.3252 28.6891 10.9265 24.4171 13.8392L12.4554 21.9779C12.4554 21.9779 11.0883 22.8346 8.52514 22.0636L2.97146 20.3501C2.97146 20.3501 0.920875 19.0651 4.42395 17.78C12.9681 13.7535 23.4773 9.64135 32.7903 5.78624Z" fill="black"/>
</svg>
