<svg width="20" height="20" viewBox="0 0 20 20" fill="none" xmlns="http://www.w3.org/2000/svg">
<path d="M9.99995 0H9.00002V4.00001H11V2.0619C14.9463 2.554 18 5.92039 18 10.0001C18 14.4183 14.4183 18 9.99995 18C5.58172 18 2 14.4183 2 10.0001C2 7.79831 2.88811 5.80594 4.32798 4.35836L2.91 2.94791C1.11256 4.75497 0 7.24854 0 10.0001C0 15.5229 4.47715 20 9.99995 20C15.5229 20 20 15.5229 20 10.0001C20 4.47717 15.5229 0 9.99995 0Z" fill="#B5BBC9"/>
<path d="M9.99995 0H9.00002V4.00001H11V2.0619C14.9463 2.554 18 5.92039 18 10.0001C18 14.4183 14.4183 18 9.99995 18C5.58172 18 2 14.4183 2 10.0001C2 7.79831 2.88811 5.80594 4.32798 4.35836L2.91 2.94791C1.11256 4.75497 0 7.24854 0 10.0001C0 15.5229 4.47715 20 9.99995 20C15.5229 20 20 15.5229 20 10.0001C20 4.47717 15.5229 0 9.99995 0Z" fill="black" fill-opacity="0.2"/>
<path d="M9.99995 0H9.00002V4.00001H11V2.0619C14.9463 2.554 18 5.92039 18 10.0001C18 14.4183 14.4183 18 9.99995 18C5.58172 18 2 14.4183 2 10.0001C2 7.79831 2.88811 5.80594 4.32798 4.35836L2.91 2.94791C1.11256 4.75497 0 7.24854 0 10.0001C0 15.5229 4.47715 20 9.99995 20C15.5229 20 20 15.5229 20 10.0001C20 4.47717 15.5229 0 9.99995 0Z" fill="black" fill-opacity="0.2"/>
<path d="M9.99995 0H9.00002V4.00001H11V2.0619C14.9463 2.554 18 5.92039 18 10.0001C18 14.4183 14.4183 18 9.99995 18C5.58172 18 2 14.4183 2 10.0001C2 7.79831 2.88811 5.80594 4.32798 4.35836L2.91 2.94791C1.11256 4.75497 0 7.24854 0 10.0001C0 15.5229 4.47715 20 9.99995 20C15.5229 20 20 15.5229 20 10.0001C20 4.47717 15.5229 0 9.99995 0Z" fill="black" fill-opacity="0.2"/>
<path d="M9.99995 0H9.00002V4.00001H11V2.0619C14.9463 2.554 18 5.92039 18 10.0001C18 14.4183 14.4183 18 9.99995 18C5.58172 18 2 14.4183 2 10.0001C2 7.79831 2.88811 5.80594 4.32798 4.35836L2.91 2.94791C1.11256 4.75497 0 7.24854 0 10.0001C0 15.5229 4.47715 20 9.99995 20C15.5229 20 20 15.5229 20 10.0001C20 4.47717 15.5229 0 9.99995 0Z" fill="black" fill-opacity="0.2"/>
<path d="M6.45634 5L5 6.44582L10.3585 12L12 10.3547L6.45634 5Z" fill="#B5BBC9"/>
<path d="M6.45634 5L5 6.44582L10.3585 12L12 10.3547L6.45634 5Z" fill="black" fill-opacity="0.2"/>
<path d="M6.45634 5L5 6.44582L10.3585 12L12 10.3547L6.45634 5Z" fill="black" fill-opacity="0.2"/>
<path d="M6.45634 5L5 6.44582L10.3585 12L12 10.3547L6.45634 5Z" fill="black" fill-opacity="0.2"/>
<path d="M6.45634 5L5 6.44582L10.3585 12L12 10.3547L6.45634 5Z" fill="black" fill-opacity="0.2"/>
</svg>
