<svg width="36" height="36" viewBox="0 0 36 36" fill="none" xmlns="http://www.w3.org/2000/svg">
<path d="M25.6945 21.3525C25.267 21.15 23.2195 20.1375 22.837 19.98C22.4545 19.8225 22.1845 19.7775 21.892 20.205C21.5995 20.6325 20.812 21.555 20.5645 21.8475C20.317 22.14 20.092 22.1625 19.6645 21.8475C18.4367 21.3547 17.3026 20.6545 16.312 19.7775C15.4153 18.9332 14.6561 17.9538 14.062 16.875C13.8145 16.47 14.062 16.245 14.242 16.02C14.422 15.795 14.647 15.5475 14.872 15.3C15.0366 15.0859 15.1727 14.8515 15.277 14.6025C15.3328 14.4867 15.3618 14.3598 15.3618 14.2312C15.3618 14.1027 15.3328 13.9758 15.277 13.86C15.277 13.6575 14.332 11.61 13.972 10.7775C13.612 9.94496 13.297 10.0575 13.0495 10.0575H12.1495C11.7208 10.0742 11.3162 10.2603 11.0245 10.575C10.5537 11.0242 10.1808 11.5659 9.92916 12.166C9.67749 12.7661 9.5525 13.4118 9.56203 14.0625C9.67712 15.6599 10.2645 17.1871 11.2495 18.45C13.0571 21.1352 15.5301 23.3058 18.427 24.75C19.417 25.1775 20.182 25.425 20.7895 25.6275C21.6426 25.8853 22.5443 25.9392 23.422 25.785C24.005 25.6667 24.5574 25.4299 25.0451 25.0893C25.5328 24.7487 25.9453 24.3116 26.257 23.805C26.5165 23.1793 26.602 22.4952 26.5045 21.825C26.392 21.6675 26.122 21.555 25.6945 21.3525Z" fill="black"/>
<path d="M29.9022 6.02996C28.3461 4.4592 26.4913 3.21594 24.447 2.37352C22.4028 1.5311 20.2106 1.10656 17.9996 1.12496C15.0708 1.14029 12.1973 1.92379 9.66597 3.3972C7.13469 4.87061 5.03428 6.98236 3.57453 9.52155C2.11479 12.0607 1.34679 14.9385 1.34725 17.8674C1.34771 20.7962 2.11661 23.6737 3.57715 26.2125L1.32715 34.875L10.1922 32.625C12.6429 33.9586 15.3895 34.6549 18.1796 34.65H17.9996C21.325 34.6716 24.5814 33.7024 27.3537 31.8659C30.1259 30.0294 32.2884 27.4089 33.5653 24.3384C34.8423 21.268 35.1758 17.8868 34.5234 14.626C33.871 11.3653 32.2622 8.37272 29.9022 6.02996ZM17.9996 31.77C15.5034 31.7719 13.0535 31.0953 10.9121 29.8125L10.4171 29.52L5.15215 30.8925L6.54715 25.7625L6.23215 25.245C4.4352 22.3511 3.76302 18.8983 4.34316 15.5416C4.92329 12.185 6.71537 9.15811 9.37937 7.03523C12.0434 4.91235 15.394 3.84121 18.7954 4.02503C22.1968 4.20885 25.4124 5.63485 27.8322 8.03246C29.1294 9.31922 30.1575 10.8513 30.8567 12.5394C31.5559 14.2275 31.9121 16.0378 31.9047 17.865C31.8987 21.551 30.4318 25.0843 27.8254 27.6907C25.219 30.2971 21.6857 31.764 17.9996 31.77Z" fill="black"/>
</svg>
